<svg width="32" height="32" viewBox="0 0 32 32" fill="none" xmlns="http://www.w3.org/2000/svg">
<path fill-rule="evenodd" clip-rule="evenodd" d="M10.6667 3.66675C10.2247 3.66675 9.80074 3.84234 9.48818 4.1549C9.17561 4.46746 9.00002 4.89139 9.00002 5.33341V28.3334H23V5.33341C23 4.89139 22.8244 4.46746 22.5119 4.1549C22.1993 3.84234 21.7754 3.66675 21.3334 3.66675H10.6667ZM25 11.0001V5.33341C25 4.36095 24.6137 3.42832 23.9261 2.74069C23.2384 2.05306 22.3058 1.66675 21.3334 1.66675H10.6667C9.69423 1.66675 8.76159 2.05306 8.07396 2.74069C7.38633 3.42832 7.00002 4.36095 7.00002 5.33341V15.0001H5.33335C4.36089 15.0001 3.42826 15.3864 2.74063 16.074C2.053 16.7617 1.66669 17.6943 1.66669 18.6667V26.6667C1.66669 27.6392 2.053 28.5718 2.74063 29.2595C3.42826 29.9471 4.36089 30.3334 5.33335 30.3334H26.6667C27.6391 30.3334 28.5718 29.9471 29.2594 29.2595C29.947 28.5718 30.3334 27.6392 30.3334 26.6667V14.6667C30.3334 13.6943 29.947 12.7617 29.2594 12.074C28.5718 11.3864 27.6391 11.0001 26.6667 11.0001H25ZM25 13.0001V28.3334H26.6667C27.1087 28.3334 27.5326 28.1578 27.8452 27.8453C28.1578 27.5327 28.3334 27.1088 28.3334 26.6667V14.6667C28.3334 14.2247 28.1578 13.8008 27.8452 13.4882C27.5326 13.1757 27.1087 13.0001 26.6667 13.0001H25ZM7.00002 17.0001H5.33335C4.89133 17.0001 4.4674 17.1757 4.15484 17.4882C3.84228 17.8008 3.66669 18.2247 3.66669 18.6667V26.6667C3.66669 27.1088 3.84228 27.5327 4.15484 27.8453C4.4674 28.1578 4.89133 28.3334 5.33335 28.3334H7.00002V17.0001ZM12.3334 8.00008C12.3334 7.4478 12.7811 7.00008 13.3334 7.00008H18.6667C19.219 7.00008 19.6667 7.4478 19.6667 8.00008C19.6667 8.55237 19.219 9.00008 18.6667 9.00008H13.3334C12.7811 9.00008 12.3334 8.55237 12.3334 8.00008ZM12.3334 13.3334C12.3334 12.7811 12.7811 12.3334 13.3334 12.3334H18.6667C19.219 12.3334 19.6667 12.7811 19.6667 13.3334C19.6667 13.8857 19.219 14.3334 18.6667 14.3334H13.3334C12.7811 14.3334 12.3334 13.8857 12.3334 13.3334ZM12.3334 18.6667C12.3334 18.1145 12.7811 17.6667 13.3334 17.6667H18.6667C19.219 17.6667 19.6667 18.1145 19.6667 18.6667C19.6667 19.219 19.219 19.6667 18.6667 19.6667H13.3334C12.7811 19.6667 12.3334 19.219 12.3334 18.6667ZM12.3334 24.0001C12.3334 23.4478 12.7811 23.0001 13.3334 23.0001H18.6667C19.219 23.0001 19.6667 23.4478 19.6667 24.0001C19.6667 24.5524 19.219 25.0001 18.6667 25.0001H13.3334C12.7811 25.0001 12.3334 24.5524 12.3334 24.0001Z" fill="#59B2FF"/>
</svg>
