<svg width="32" height="32" viewBox="0 0 32 32" fill="none" xmlns="http://www.w3.org/2000/svg">
<path fill-rule="evenodd" clip-rule="evenodd" d="M5.33335 9C4.41288 9 3.66669 9.74619 3.66669 10.6667V21.3333C3.66669 22.2538 4.41288 23 5.33335 23H18.6667C19.5872 23 20.3334 22.2538 20.3334 21.3333V17.347C20.3332 17.3373 20.3332 17.3276 20.3334 17.3178V14.019C20.3331 14.0069 20.3331 13.9949 20.3334 13.9829V10.6667C20.3334 9.74619 19.5872 9 18.6667 9H5.33335ZM22.3334 12.2588V10.6667C22.3334 8.64162 20.6917 7 18.6667 7H5.33335C3.30831 7 1.66669 8.64162 1.66669 10.6667V21.3333C1.66669 23.3584 3.30831 25 5.33335 25H18.6667C20.6917 25 22.3334 23.3584 22.3334 21.3333V19.2019L27.7434 22.8085C27.9943 22.9755 28.2859 23.0713 28.587 23.0858C28.8882 23.1002 29.1876 23.0326 29.4534 22.8903C29.7191 22.748 29.9413 22.5363 30.0963 22.2777C30.2513 22.0191 30.3332 21.7233 30.3334 21.4218V10.4936C30.3334 10.4937 30.3334 10.4935 30.3334 10.4936C30.3334 10.2005 30.2561 9.9122 30.1093 9.65845C29.9624 9.40462 29.7512 9.19404 29.4969 9.04796C29.2426 8.90188 28.9543 8.82548 28.661 8.82648C28.3678 8.82747 28.08 8.90583 27.8267 9.05363L22.3334 12.2588ZM22.3334 14.5743V16.7982L28.3334 20.7982V11.0735L22.3334 14.5743Z" fill="#59B2FF"/>
</svg>
